<?xml version="1.0" standalone="no"?>
<!DOCTYPE svg PUBLIC "-//W3C//DTD SVG 20010904//EN"
 "http://www.w3.org/TR/2001/REC-SVG-20010904/DTD/svg10.dtd">
<svg version="1.0" xmlns="http://www.w3.org/2000/svg"
 width="284.000000pt" height="177.000000pt" viewBox="0 0 284.000000 177.000000"
 preserveAspectRatio="xMidYMid meet">

<g transform="translate(0.000000,177.000000) scale(0.100000,-0.100000)"
fill="#000000" stroke="none">
<path d="M611 1557 c-19 -7 -44 -25 -55 -40 -21 -28 -21 -35 -21 -632 0 -597
0 -604 21 -632 11 -15 36 -33 55 -40 49 -17 1569 -17 1618 0 19 7 44 25 55 40
21 28 21 35 21 632 0 597 0 604 -21 632 -11 15 -36 33 -55 40 -49 17 -1569 17
-1618 0z m434 -317 c197 -143 365 -260 375 -260 10 0 178 117 375 260 289 210
364 260 389 260 44 0 56 -16 55 -74 l0 -51 -401 -290 c-220 -159 -408 -290
-418 -290 -10 0 -198 131 -418 290 l-401 290 0 51 c-1 58 11 74 55 74 25 0
100 -50 389 -260z m994 256 c-17 -17 -613 -446 -619 -446 -6 0 -602 429 -619
446 -2 2 276 4 619 4 343 0 621 -2 619 -4z m-1341 -266 l32 -24 0 -468 0 -468
-53 0 c-29 0 -58 5 -65 12 -9 9 -12 137 -12 516 l0 504 33 -24 c17 -13 47 -35
65 -48z m1531 -946 c-7 -9 -32 -14 -65 -14 l-54 0 0 468 0 468 63 46 62 46 3
-500 c1 -361 -1 -505 -9 -514z m-1099 632 c155 -113 286 -206 290 -206 4 0
135 93 290 206 156 113 294 213 307 221 l23 15 0 -441 0 -441 -620 0 -620 0 0
441 0 441 23 -15 c13 -8 151 -108 307 -221z"/>
</g>
</svg>
