<?xml version="1.0" standalone="no"?>
<!DOCTYPE svg PUBLIC "-//W3C//DTD SVG 20010904//EN"
 "http://www.w3.org/TR/2001/REC-SVG-20010904/DTD/svg10.dtd">
<svg version="1.0" xmlns="http://www.w3.org/2000/svg"
 width="219.000000pt" height="230.000000pt" viewBox="0 0 219.000000 230.000000"
 preserveAspectRatio="xMidYMid meet">

<g transform="translate(0.000000,230.000000) scale(0.100000,-0.100000)"
fill="#000000" stroke="none">
<path d="M1433 2175 c-70 -19 -158 -64 -221 -114 l-51 -41 -438 0 c-267 0
-452 -4 -475 -10 -68 -19 -130 -70 -163 -134 l-30 -60 0 -755 c0 -699 1 -759
17 -793 27 -56 75 -106 129 -134 l48 -24 758 0 c741 0 759 1 803 21 60 27 98
64 126 124 l24 50 0 436 0 437 54 85 c108 173 142 312 112 463 -25 126 -66
205 -156 294 -119 120 -239 171 -401 169 -46 0 -108 -7 -136 -14z m248 -171
c191 -56 306 -240 277 -442 -12 -76 -44 -140 -152 -302 -54 -80 -128 -208
-166 -285 l-69 -139 -16 39 c-42 101 -125 251 -205 371 -105 156 -135 213
-156 296 -31 120 2 250 88 343 108 119 253 162 399 119z m-631 -163 c0 -5 -7
-28 -16 -52 -8 -24 -18 -82 -21 -129 -6 -105 12 -191 64 -296 l37 -75 -442
-442 -442 -442 0 696 0 696 23 20 c12 11 29 23 37 26 25 9 760 8 760 -2z m229
-795 c33 -52 79 -132 101 -178 38 -79 86 -216 78 -224 -4 -4 -333 326 -358
359 -12 16 -7 24 46 78 32 32 61 59 65 59 4 0 34 -42 68 -94z m503 -718 c-4
-4 -57 42 -117 102 -98 98 -107 110 -83 110 43 0 86 44 104 108 19 68 48 148
77 217 l22 50 3 -289 c1 -159 -1 -293 -6 -298z m-512 257 l305 -305 -610 0
-610 0 305 305 c168 168 305 305 305 305 0 0 137 -137 305 -305z"/>
<path d="M1524 1746 c-69 -31 -96 -100 -66 -170 24 -52 62 -76 123 -76 35 0
48 6 80 39 33 33 39 45 39 82 0 56 -30 106 -75 125 -42 17 -61 17 -101 0z"/>
<path d="M515 1751 c-76 -20 -145 -77 -176 -146 -41 -90 -14 -230 57 -297 96
-90 262 -90 358 0 36 34 76 117 76 160 l0 32 -125 0 -125 0 0 -45 0 -45 70 0
c40 0 70 -4 70 -10 0 -20 -82 -69 -126 -76 -111 -16 -211 95 -190 212 8 41 64
106 106 124 41 17 125 8 159 -18 l28 -21 31 32 31 32 -32 21 c-18 12 -42 27
-53 33 -30 14 -122 22 -159 12z"/>
</g>
</svg>
