<?xml version="1.0" standalone="no"?>
<!DOCTYPE svg PUBLIC "-//W3C//DTD SVG 20010904//EN"
 "http://www.w3.org/TR/2001/REC-SVG-20010904/DTD/svg10.dtd">
<svg version="1.0" xmlns="http://www.w3.org/2000/svg"
 width="840.000000pt" height="1060.000000pt" viewBox="0 0 840.000000 1060.000000"
 preserveAspectRatio="xMidYMid meet">

<g transform="translate(0.000000,1060.000000) scale(0.100000,-0.100000)"
fill="#000000" stroke="none">
<path d="M2366 10189 c-391 -58 -734 -346 -854 -719 -55 -169 -52 87 -52
-4170 0 -3475 2 -3938 15 -4016 38 -222 124 -391 285 -557 137 -143 303 -241
499 -295 l96 -27 1835 0 1835 0 97 27 c411 113 712 439 783 847 22 126 22
7916 0 8042 -71 409 -371 734 -780 847 l-100 27 -1800 1 c-990 1 -1827 -2
-1859 -7z m3603 -350 c155 -25 285 -92 396 -203 82 -83 135 -169 173 -281 l27
-80 0 -3970 0 -3970 -23 -75 c-30 -94 -58 -149 -115 -227 -87 -117 -234 -216
-387 -260 -62 -17 -146 -18 -1850 -18 -1704 0 -1788 1 -1850 18 -153 44 -300
143 -387 260 -57 78 -85 133 -115 227 l-23 75 0 3970 0 3970 27 80 c69 201
214 359 403 438 52 21 82 29 190 51 49 9 3473 5 3534 -5z"/>
<path d="M3660 9573 c-52 -20 -64 -66 -27 -101 l23 -22 535 0 536 0 21 23 c28
29 28 59 1 83 -20 18 -45 19 -548 21 -289 1 -533 -1 -541 -4z"/>
<path d="M2132 9160 c-56 -23 -52 212 -50 -3505 l3 -3425 28 -27 27 -28 2028
-3 c1460 -2 2038 0 2065 8 73 21 67 -292 67 3495 0 3064 -2 3419 -15 3446 -9
16 -27 34 -41 39 -33 13 -4080 12 -4112 0z m3988 -3490 l0 -3320 -1930 0
-1930 0 0 3320 0 3320 1930 0 1930 0 0 -3320z"/>
<path d="M4086 2018 c-178 -34 -351 -190 -407 -367 -24 -77 -28 -220 -9 -291
48 -178 191 -326 369 -380 79 -25 215 -27 292 -4 186 55 329 201 379 384 19
71 15 214 -9 291 -81 257 -350 418 -615 367z m256 -200 c72 -33 136 -97 174
-174 25 -52 29 -70 29 -149 0 -78 -4 -98 -29 -152 -35 -76 -104 -144 -184
-181 -48 -22 -71 -27 -142 -27 -71 0 -94 5 -142 27 -211 98 -282 351 -151 537
43 62 113 114 182 136 71 23 192 15 263 -17z"/>
</g>
</svg>
